<?xml version="1.0" encoding="UTF-8" standalone="no"?>
<svg
   xmlns:dc="http://purl.org/dc/elements/1.1/"
   xmlns:cc="http://creativecommons.org/ns#"
   xmlns:rdf="http://www.w3.org/1999/02/22-rdf-syntax-ns#"
   xmlns:svg="http://www.w3.org/2000/svg"
   xmlns="http://www.w3.org/2000/svg"
   xmlns:xlink="http://www.w3.org/1999/xlink"
   xmlns:sodipodi="http://sodipodi.sourceforge.net/DTD/sodipodi-0.dtd"
   xmlns:inkscape="http://www.inkscape.org/namespaces/inkscape"
   sodipodi:docname="logo.svg"
   inkscape:version="1.0 (4035a4fb49, 2020-05-01)"
   id="svg1705"
   version="1.1"
   viewBox="0 0 164.78749 60.109009"
   height="60.109009mm"
   width="164.78749mm">
  <defs
     id="defs1699">
    <linearGradient
       inkscape:collect="always"
       xlink:href="#linearGradient1469"
       id="linearGradient1473"
       x1="150.37762"
       y1="-581.59003"
       x2="147.92201"
       y2="-444.96524"
       gradientUnits="userSpaceOnUse" />
    <linearGradient
       inkscape:collect="always"
       id="linearGradient1469">
      <stop
         style="stop-color:#004c72;stop-opacity:1;"
         offset="0"
         id="stop1465" />
      <stop
         style="stop-color:#0074a7;stop-opacity:1"
         offset="1"
         id="stop1467" />
    </linearGradient>
    <linearGradient
       y2="-444.96524"
       x2="147.92201"
       y1="-581.59003"
       x1="150.37762"
       gradientUnits="userSpaceOnUse"
       id="linearGradient2358"
       xlink:href="#linearGradient1469"
       inkscape:collect="always" />
    <linearGradient
       y2="-444.96524"
       x2="147.92201"
       y1="-581.59003"
       x1="150.37762"
       gradientUnits="userSpaceOnUse"
       id="linearGradient2360"
       xlink:href="#linearGradient1469"
       inkscape:collect="always" />
    <linearGradient
       y2="-444.96524"
       x2="147.92201"
       y1="-581.59003"
       x1="150.37762"
       gradientUnits="userSpaceOnUse"
       id="linearGradient2362"
       xlink:href="#linearGradient1469"
       inkscape:collect="always" />
    <linearGradient
       y2="-444.96524"
       x2="147.92201"
       y1="-581.59003"
       x1="150.37762"
       gradientUnits="userSpaceOnUse"
       id="linearGradient2364"
       xlink:href="#linearGradient1469"
       inkscape:collect="always" />
    <linearGradient
       y2="-444.96524"
       x2="147.92201"
       y1="-581.59003"
       x1="150.37762"
       gradientUnits="userSpaceOnUse"
       id="linearGradient2366"
       xlink:href="#linearGradient1469"
       inkscape:collect="always" />
    <linearGradient
       y2="-444.96524"
       x2="147.92201"
       y1="-581.59003"
       x1="150.37762"
       gradientUnits="userSpaceOnUse"
       id="linearGradient2368"
       xlink:href="#linearGradient1469"
       inkscape:collect="always" />
    <linearGradient
       y2="-444.96524"
       x2="147.92201"
       y1="-581.59003"
       x1="150.37762"
       gradientUnits="userSpaceOnUse"
       id="linearGradient2370"
       xlink:href="#linearGradient1469"
       inkscape:collect="always" />
  </defs>
  <sodipodi:namedview
     inkscape:window-maximized="1"
     inkscape:window-y="-8"
     inkscape:window-x="-8"
     inkscape:window-height="1017"
     inkscape:window-width="1920"
     fit-margin-bottom="0"
     fit-margin-right="0"
     fit-margin-left="0"
     fit-margin-top="0"
     showgrid="false"
     inkscape:document-rotation="0"
     inkscape:current-layer="layer1"
     inkscape:document-units="mm"
     inkscape:cy="207.87754"
     inkscape:cx="325.69514"
     inkscape:zoom="0.35"
     inkscape:pageshadow="2"
     inkscape:pageopacity="0.0"
     borderopacity="1.0"
     bordercolor="#666666"
     pagecolor="#ffffff"
     id="base" />
  <metadata
     id="metadata1702">
    <rdf:RDF>
      <cc:Work
         rdf:about="">
        <dc:format>image/svg+xml</dc:format>
        <dc:type
           rdf:resource="http://purl.org/dc/dcmitype/StillImage" />
        <dc:title></dc:title>
      </cc:Work>
    </rdf:RDF>
  </metadata>
  <g
     transform="translate(-19.659827,-93.165734)"
     id="layer1"
     inkscape:groupmode="layer"
     inkscape:label="Layer 1">
    <g
       transform="matrix(0.26458333,0,0,0.26458333,104.71731,166.31808)"
       id="g1513">
      <g
         transform="translate(-385.29516,-1.8936188)"
         id="g1070">
        <path
           id="path4519"
           style="fill:#004c72;fill-rule:evenodd"
           d="m 109.03396,-261.64594 c 0,-4.3373 -3.5161,-7.8534 -7.8537,-7.8534 -4.337304,0 -7.853404,3.5161 -7.853404,7.8534 0,4.3376 3.5161,7.8537 7.853404,7.8537 4.3376,0 7.8537,-3.5161 7.8537,-7.8537 z" />
        <path
           id="path4521"
           style="fill:#4a4a4a;fill-rule:evenodd"
           d="m 103.51516,-136.38724 c 0.6945,0.5131 1.3788,1.0265 2.073,1.5497 -0.7345,0.4933 -1.4491,0.9763 -2.1736,1.4593 v 0.0102 c -1.2782,0.8552 -2.5563,1.7008 -3.824304,2.556 -0.1811,-0.1307 -0.3724,-0.2514 -0.5635,-0.3824 -1.2177,-0.8351 -2.4355,-1.6605 -3.6632,-2.4956 l 3.4821,-2.6569 2.344804,-1.7915 c 0.775,0.5839 1.5497,1.1676 2.3247,1.7512 z" />
        <path
           id="path4523"
           style="fill:#9c9ea0;fill-rule:evenodd"
           d="m 95.232856,-180.75764 -7.6887,5.6055 c -3.8143,-2.5463 -7.427,-4.9717 -10.7883,-7.2159 -0.9261,-0.6239 -1.8216,-1.2276 -2.7071,-1.8113 -0.4428,-0.3019 -0.8757,-0.5939 -1.3085,-0.8858 l -0.644,-0.4227 -0.7849,-0.5836 c -2.1034,-1.5599 -3.9351,-3.5022 -5.2634,-5.7464 -1.3184,-2.234 -2.0631,-4.7801 -2.204,-7.1651 -0.1306,-2.3851 0.2416,-4.6194 0.9159,-6.4409 0.322,-0.9159 0.7345,-1.7311 1.1069,-2.4857 0.1208,-0.1812 0.2214,-0.3623 0.3323,-0.5335 -0.8252,-2.848 -0.3623,-6.1691 1.5497,-8.9668 3.2204,-4.7197 13.8376,-12.8211 18.1046,-9.9026 4.267,2.9186 0.5836,15.7496 -2.6368,20.4695 -1.8516,2.7074 -4.6494,4.3274 -7.5073,4.6798 -0.131,0.2415 -0.292,0.483 -0.4028,0.7548 -0.4929,1.1673 -0.7546,2.556 0.1009,4.3875 0.4428,0.9059 1.1974,1.8822 2.2743,2.7978 l 0.4127,0.3623 0.6137,0.4731 c 0.4127,0.3118 0.8254,0.6341 1.2478,0.9561 0.8456,0.644 1.711,1.298 2.5866,1.9723 3.9047,2.979 8.1717,6.2397 12.6904,9.7016 z" />
        <path
           id="path4525"
           style="fill:#4a4a4a;fill-rule:evenodd"
           d="m 102.84076,-174.95084 c -3.995104,0.01 -6.823004,1.8011 -8.523704,4.3472 -0.9763,-0.654 -1.9526,-1.3082 -2.9087,-1.9522 l 5.9678,-4.4782 1.3788,-1.0366 c 0.8654,0.6539 1.731104,1.3283 2.616604,2.0024 0.4831,0.3625 0.9763,0.7449 1.4692,1.1174 z" />
        <path
           id="path4527"
           style="fill:#9c9ea0;fill-rule:evenodd"
           d="m 86.457056,-120.17474 c -2.4052,4.2973 -2.3748,9.7016 -0.2313,13.8277 0.5332,1.0264 1.1776,1.9925 1.912,2.8579 0.3322,0.4731 0.7849,0.8152 1.1775,1.2279 0.3725,0.3926 0.8555,0.7949 1.3082,1.1875 1.8014,1.5599 3.5524,3.0795 5.2231,4.5286 1.59,1.3788 3.1198,2.7071 4.579104,3.9651 0.5032,0.4329 0.9961,0.8555 1.4692,1.2682 9.3189,8.0711 15.4378,13.3745 16.2125,14.059 -0.7849,-0.6038 -6.9137,-5.2736 -16.2729,-12.4186 -0.4427,-0.3322 -0.8855,-0.6743 -1.3484,-1.0267 -1.821604,-1.3887 -3.763904,-2.8681 -5.796904,-4.4178 -1.7611,-1.3487 -3.6028,-2.7476 -5.5046,-4.1967 -0.4731,-0.3724 -0.9462,-0.7044 -1.4493,-1.1573 -0.4731,-0.4428 -1.0165,-0.8252 -1.4491,-1.3383 -0.9159,-0.9561 -1.7512,-2.033 -2.4556,-3.2204 -2.8381,-4.72 -3.3713,-11.2411 -0.6843,-16.8568 0.3722,-0.6741 0.7347,-1.3788 1.1574,-2.033 0.4728,-0.6239 0.8552,-1.2881 1.4391,-1.9018 l 0.8552,-0.9159 c 0.1409,-0.1408 0.292,-0.322 0.4329,-0.4427 l 0.3923,-0.3422 0.8152,-0.6945 0.2013,-0.1811 0.3121,-0.2316 0.4226,-0.3319 c 1.1574,-0.8856 2.3148,-1.7714 3.492,-2.6668 l 2.6972,-2.0631 3.4821,-2.6569 2.344804,-1.7915 2.4554,-1.8819 1.0066,-0.7648 c 1.8014,-1.3788 3.6028,-2.7675 5.4141,-4.1463 0.6441,-0.4629 1.0466,-0.8552 1.5197,-1.2478 0.2517,-0.1811 0.4226,-0.4226 0.6338,-0.6341 0.1913,-0.2214 0.4329,-0.4124 0.5939,-0.6539 0.7446,-0.8856 1.258,-1.882 1.6202,-2.8582 0.3623,-0.9964 0.4227,-2.0126 0.3422,-2.9889 -0.01,-0.4932 -0.161,-0.966 -0.2716,-1.4493 -0.2015,-0.4629 -0.3322,-0.9357 -0.614,-1.3785 -0.2012,-0.4629 -0.5737,-0.8657 -0.8452,-1.2983 -0.3725,-0.3724 -0.7147,-0.8555 -1.0769,-1.1171 l -0.5335,-0.4932 -0.8654,-0.6441 -0.3118,-0.2313 c 0,0 -0.0102,-0.0102 -0.0304,-0.0201 l -0.03,-0.0201 -0.0403,-0.0303 -0.0303,-0.0202 -0.0703,-0.0402 -0.2217,-0.1508 -0.8855,-0.5936 c -0.6642,-0.4428 -1.3184,-0.8855 -1.9724,-1.3184 l 0.4125,-9.3492 c 1.9525,1.4995 3.935,3.0089 5.9479,4.5388 l 0.8453,0.6542 0.5735,0.4428 0.4127,0.3422 0.8252,0.6942 c 0.312,0.2919 0.6842,0.6743 1.0165,1.0065 0.7245,0.6942 1.2075,1.4191 1.7812,2.1334 0.4831,0.7951 1.0163,1.5497 1.3788,2.4352 1.6804,3.3914 1.7609,7.729 0.2716,11.221 -0.7549,1.7311 -1.7711,3.3109 -2.9991,4.6193 -0.2917,0.3521 -0.6338,0.6239 -0.9558,0.936 -0.3322,0.2917 -0.6341,0.6239 -0.9964,0.8654 -0.6843,0.5233 -1.4088,1.0769 -1.9928,1.4392 -1.942,1.3082 -3.8843,2.6064 -5.8166,3.9047 -0.6942,0.4728 -1.3887,0.9357 -2.0832,1.3986 h -0.0102 c -0.7345,0.4933 -1.4491,0.9763 -2.1736,1.4593 v 0.0102 c -1.2782,0.8552 -2.5563,1.7008 -3.824304,2.556 l -0.5332,0.3524 -5.4144,3.6328 c -0.6642,0.4428 -1.3283,0.8856 -1.9925,1.3286 l -0.4428,0.3019 -0.1108,0.0703 -0.0604,0.0403 -0.161,0.1207 -0.8555,0.6441 -0.4226,0.322 c -0.131,0.1108 -0.2112,0.2015 -0.322,0.3121 l -0.614,0.5938 c -0.4227,0.3722 -0.7849,0.9258 -1.1874,1.3788 -0.3623,0.493 -0.6744,1.0264 -1.0166,1.5395 z" />
        <g
           id="Layer1001"
           transform="translate(-29.271244,-460.68354)">
          <path
             id="path4529"
             style="fill:#0082c2;fill-rule:evenodd"
             d="m 128.0262,282.6129 6.4409,-4.8408 -0.1713,4.7603 -3.653,2.0829 -3.8846,2.2141 -0.1108,-3.1799 z" />
          <path
             id="path4531"
             style="fill:#0082c2;fill-rule:evenodd"
             d="m 136.9428,209.2182 -2.2847,63.3107 -8.2018,5.978 -2.4959,-69.2887 c 1.872,1.2076 4.0961,1.9021 6.4911,1.9021 2.3953,0 4.6193,-0.6945 6.4913,-1.9021 z" />
          <path
             id="path4533"
             style="fill:#0082c2;fill-rule:evenodd"
             d="m 130.8038,331.1899 1.7915,-1.4088 -0.0907,2.5662 -1.3385,37.0244 -0.0604,1.6404 -0.6542,18.0944 -0.6942,-19.1211 -0.0604,-1.8819 -1.2682,-35.0317 z" />
          <path
             id="path4535"
             style="fill:#0082c2;fill-rule:evenodd"
             d="m 133.9237,292.908 -0.8856,24.4746 -4.7302,3.5425 -0.3118,0.2313 -0.0102,-0.4728 -0.8552,-23.5792 z" />
        </g>
        <path
           id="path4538"
           style="fill:#4a4a4a;fill-rule:evenodd"
           d="m 99.590256,-130.81204 c 1.268004,-0.8552 2.546104,-1.7008 3.824304,-2.556 v -0.0102 z" />
        <path
           id="path4540"
           style="fill:#004c72;fill-rule:evenodd"
           d="m 179.54626,-79.25554 c -12.7709,-9.6009 -27.6752,-20.8017 -43.6461,-32.7977 -7.9807,-5.9978 -16.2329,-12.1972 -24.6059,-18.4969 -1.4289,-1.0768 -2.878,-2.1537 -4.3172,-3.2507 l -2.3246,1.8442 v 4.5893 c 0.9759,0.6675 1.9522,1.3354 2.9284,1.9998 8.6647,5.9074 17.1888,11.7244 25.441,17.3497 16.4945,11.2513 31.892,21.7477 45.0955,30.7548 24.7666,16.8869 41.7844,28.5004 43.8072,29.859 -1.9423,-1.4692 -18.4167,-13.8274 -42.3783,-31.8515 z" />
        <path
           id="path4542"
           style="fill:#004c72;fill-rule:evenodd"
           d="m 201.53546,-250.35844 c -0.2919,-3.6127 -1.4692,-6.6217 -2.7272,-8.9767 -0.6843,-1.097 -1.2982,-2.2039 -1.9927,-3.0192 -0.6843,-0.8453 -1.2478,-1.6101 -1.9826,-2.3043 -0.3421,-0.3424 -0.6639,-0.6644 -0.9759,-0.9561 -0.1511,-0.1511 -0.3022,-0.292 -0.4428,-0.4328 -0.1409,-0.1307 -0.3121,-0.2917 -0.3824,-0.3422 0,-0.0102 -0.0102,-0.0102 -0.0102,-0.0102 -0.936,-2.1436 -2.6368,-4.0453 -4.9513,-5.2631 -5.0621,-2.6569 -18.2356,-4.8509 -20.6407,-0.2718 -2.4052,4.5791 6.8635,14.1899 11.9154,16.8466 1.419,0.7449 2.9185,1.1474 4.3877,1.258 0.0604,0.0604 0.131,0.1207 0.2013,0.1811 0.2115,0.131 0.4731,0.5032 0.775,0.8252 0.3523,0.3121 0.5133,0.7146 0.8453,1.1072 0.4731,0.8149 0.9056,1.7308 1.0567,2.7675 0.1508,1.0264 0.0604,2.1937 -0.5334,3.5623 -0.5837,1.3487 -1.7309,2.8885 -3.5323,4.3174 -5.1528,3.8846 -10.9695,8.2624 -17.3197,13.0425 -12.7709,9.6009 -27.6752,20.7915 -43.636,32.7977 -4.9918,3.7437 -10.0839,7.5778 -15.2467,11.4525 -0.3824,0.2917 -0.7648,0.5735 -1.1471,0.8654 l -6.4409,4.8408 -1.378804,1.0366 -5.9678,4.4782 -2.5058,1.8819 -1.5194,1.2679 c -0.2316,0.1712 -0.5839,0.5335 -0.8858,0.8252 l -0.9156,0.9159 -0.453,0.4731 -0.3926,0.4731 -0.7545,0.9558 c -1.9727,2.6065 -3.4419,5.7966 -3.8949,9.2384 -0.4929,3.4316 0.2013,6.9942 1.6405,10.0032 1.449,3.0192 3.6028,5.5148 5.9978,7.4772 l 1.8419,1.389 1.6404,1.127 1.8315,1.2479 3.7721,-2.8174 -0.1817,-3.4727 -1.175,-0.8853 -1.6004,-1.1976 -1.2881,-1.0769 c -1.6404,-1.4791 -2.9384,-3.2 -3.7035,-5.0318 -0.7545,-1.8215 -1.0264,-3.7335 -0.6641,-5.565 0.3421,-1.8419 1.2277,-3.5929 2.5259,-5.1525 l 0.5032,-0.5737 0.2517,-0.2917 0.2517,-0.2214 0.5032,-0.4731 c 0.191,-0.161 0.2715,-0.2917 0.5836,-0.5133 l 1.4392,-1.0766 c 0,0 0.0201,-0.0202 0.0402,-0.0304 l 0.0202,-0.0201 0.0201,-0.01 0.0904,-0.0604 0.2115,-0.1409 0.4124,-0.282 0.8153,-0.5534 c 2.173804,-1.4893 4.357404,-2.9789 6.521304,-4.4481 8.6647,-5.9074 17.1888,-11.7241 25.4308,-17.3497 16.5044,-11.2513 31.9019,-21.7579 45.1057,-30.7548 6.6319,-4.5286 12.7103,-8.6848 18.0944,-12.3681 3.4217,-2.4256 6.34,-5.6256 8.212,-9.3192 1.902,-3.6731 2.6166,-7.7992 2.3045,-11.3922 z" />
      </g>
      <g
         id="text4741"
         style="font-style:normal;font-variant:normal;font-weight:normal;font-stretch:normal;font-size:131.424px;line-height:125%;font-family:'Arial Rounded MT Bold';-inkscape-font-specification:'Arial Rounded MT Bold, Normal';font-variant-ligatures:normal;font-variant-caps:normal;font-variant-numeric:normal;font-feature-settings:normal;text-align:start;letter-spacing:0px;word-spacing:0px;writing-mode:lr-tb;text-anchor:start;opacity:1;fill:url(#linearGradient1473);fill-opacity:1;stroke:none;stroke-width:3.2855px;stroke-linecap:butt;stroke-linejoin:miter;stroke-opacity:1"
         transform="matrix(0.95143324,0,0,1.0510459,-110.36111,387.90859)"
         aria-label="Kontabb">
        <path
           id="path1555"
           style="font-style:normal;font-variant:normal;font-weight:normal;font-stretch:normal;font-size:131.424px;font-family:'Arial Rounded MT Bold';-inkscape-font-specification:'Arial Rounded MT Bold, Normal';font-variant-ligatures:normal;font-variant-caps:normal;font-variant-numeric:normal;font-feature-settings:normal;text-align:start;writing-mode:lr-tb;text-anchor:start;fill:url(#linearGradient2358);fill-opacity:1;stroke-width:3.2855px"
           d="m -69.42505,-569.97156 v 32.98426 l 37.412111,-39.0164 q 2.695212,-2.82356 4.556192,-4.17116 1.925151,-1.34761 5.069566,-1.34761 4.106989,0 6.609686,2.43853 2.566869,2.37435 2.566869,5.83962 0,4.17117 -4.299505,8.27816 l -23.16599,21.94672 26.695434,38.24635 q 2.823556,3.97864 4.2353338,6.99471 1.4117777,2.9519 1.4117777,5.77546 0,3.14441 -2.5026965,5.45459 -2.438526,2.31019 -6.673859,2.31019 -3.978646,0 -6.481343,-1.66847 -2.502697,-1.73264 -4.235334,-4.55619 -1.732636,-2.82356 -3.080242,-5.13374 l -22.524273,-34.65273 -15.593727,14.95201 v 19.44403 q 0,5.9038 -2.695212,8.79153 -2.695212,2.82356 -6.930545,2.82356 -2.438525,0 -4.684535,-1.28344 -2.246011,-1.28343 -3.465273,-3.46527 -0.898404,-1.79681 -1.090919,-4.17116 -0.192515,-2.37436 -0.192515,-6.86638 v -69.94717 q 0,-5.77545 2.502696,-8.66318 2.566869,-2.88773 6.930546,-2.88773 4.299505,0 6.930545,2.88773 2.695212,2.82356 2.695212,8.66318 z" />
        <path
           id="path1557"
           style="font-style:normal;font-variant:normal;font-weight:normal;font-stretch:normal;font-size:131.424px;font-family:'Arial Rounded MT Bold';-inkscape-font-specification:'Arial Rounded MT Bold, Normal';font-variant-ligatures:normal;font-variant-caps:normal;font-variant-numeric:normal;font-feature-settings:normal;text-align:start;writing-mode:lr-tb;text-anchor:start;fill:url(#linearGradient2360);fill-opacity:1;stroke-width:3.2855px"
           d="m 68.28746,-519.85345 q 0,7.82895 -2.438525,14.43864 -2.438525,6.60969 -7.058889,11.35839 -4.620363,4.74871 -11.037535,7.31558 -6.417171,2.5027 -14.438636,2.5027 -7.957293,0 -14.310293,-2.56687 -6.353,-2.56687 -11.0375351,-7.31558 -4.6203636,-4.81288 -7.05888884,-11.29422 -2.37435356,-6.54552 -2.37435356,-14.43864 0,-7.95729 2.43852528,-14.56698 2.43852522,-6.60968 6.99471712,-11.29422 4.5561921,-4.68453 11.0375351,-7.18723 6.481344,-2.56687 14.310293,-2.56687 7.957293,0 14.438636,2.56687 6.481344,2.56687 11.101707,7.31557 4.620364,4.74871 6.994717,11.29423 2.438525,6.54551 2.438525,14.43863 z m -17.58305,0 q 0,-10.71667 -4.748707,-16.68464 -4.684535,-5.96797 -12.641828,-5.96797 -5.133737,0 -9.048212,2.69521 -3.914475,2.63104 -6.032141,7.82895 -2.117667,5.19791 -2.117667,12.12845 0,6.86638 2.053495,12.00011 2.117666,5.13374 5.967969,7.89312 3.914475,2.69522 9.176556,2.69522 7.957293,0 12.641828,-5.96797 4.748707,-6.03214 4.748707,-16.62048 z" />
        <path
           id="path1559"
           style="font-style:normal;font-variant:normal;font-weight:normal;font-stretch:normal;font-size:131.424px;font-family:'Arial Rounded MT Bold';-inkscape-font-specification:'Arial Rounded MT Bold, Normal';font-variant-ligatures:normal;font-variant-caps:normal;font-variant-numeric:normal;font-feature-settings:normal;text-align:start;writing-mode:lr-tb;text-anchor:start;fill:url(#linearGradient2362);fill-opacity:1;stroke-width:3.2855px"
           d="m 98.063124,-545.77882 v 2.11767 q 4.620366,-6.09632 10.074956,-8.91987 5.51877,-2.88773 12.64183,-2.88773 6.93055,0 12.38514,3.01607 5.4546,3.01607 8.14981,8.53484 1.73264,3.20858 2.24601,6.93054 0.51338,3.72196 0.51338,9.49742 v 32.59923 q 0,5.26208 -2.43853,7.95729 -2.37435,2.69522 -6.22466,2.69522 -3.91447,0 -6.353,-2.75939 -2.43852,-2.75938 -2.43852,-7.89312 v -29.19813 q 0,-8.66318 -2.43853,-13.21937 -2.37435,-4.62037 -9.56158,-4.62037 -4.68454,0 -8.53484,2.82356 -3.8503,2.75938 -5.64711,7.63643 -1.283437,3.91448 -1.283437,14.63115 v 21.94673 q 0,5.32625 -2.502696,8.02146 -2.438526,2.63105 -6.353,2.63105 -3.786132,0 -6.224657,-2.75939 -2.438525,-2.75938 -2.438525,-7.89312 v -50.63148 q 0,-5.0054 2.181838,-7.44392 2.181839,-2.5027 5.96797,-2.5027 2.310182,0 4.171161,1.09092 1.86098,1.09092 2.951899,3.27276 1.155091,2.18183 1.155091,5.32625 z" />
        <path
           id="path1561"
           style="font-style:normal;font-variant:normal;font-weight:normal;font-stretch:normal;font-size:131.424px;font-family:'Arial Rounded MT Bold';-inkscape-font-specification:'Arial Rounded MT Bold, Normal';font-variant-ligatures:normal;font-variant-caps:normal;font-variant-numeric:normal;font-feature-settings:normal;text-align:start;writing-mode:lr-tb;text-anchor:start;fill:url(#linearGradient2364);fill-opacity:1;stroke-width:3.2855px"
           d="m 162.42737,-553.92863 h 1.92515 v -10.52416 q 0,-4.23533 0.19251,-6.60969 0.25669,-2.43852 1.28344,-4.17116 1.02675,-1.79681 2.9519,-2.88773 1.92515,-1.15509 4.2995,-1.15509 3.33693,0 6.03214,2.5027 1.79681,1.66846 2.24601,4.10699 0.51338,2.37435 0.51338,6.8022 v 11.93594 h 6.41717 q 3.72196,0 5.64711,1.79681 1.98932,1.73264 1.98932,4.49202 0,3.52944 -2.82355,4.94122 -2.75939,1.41178 -7.95729,1.41178 h -3.27276 v 32.2142 q 0,4.10699 0.25668,6.353 0.32086,2.18184 1.54013,3.59362 1.28343,1.3476 4.10699,1.3476 1.54012,0 4.17116,-0.51337 2.63104,-0.57755 4.10699,-0.57755 2.11766,0 3.78613,1.73264 1.73264,1.66846 1.73264,4.17116 0,4.23534 -4.62037,6.48135 -4.62036,2.24601 -13.28354,2.24601 -8.21398,0 -12.44932,-2.75939 -4.23533,-2.75938 -5.58294,-7.63643 -1.28343,-4.87705 -1.28343,-13.02686 v -33.62598 h -2.31018 q -3.78613,0 -5.77546,-1.79681 -1.98932,-1.79681 -1.98932,-4.55619 0,-2.75938 2.05349,-4.49202 2.11767,-1.79681 6.09632,-1.79681 z" />
        <path
           id="path1563"
           style="font-style:normal;font-variant:normal;font-weight:normal;font-stretch:normal;font-size:131.424px;font-family:'Arial Rounded MT Bold';-inkscape-font-specification:'Arial Rounded MT Bold, Normal';font-variant-ligatures:normal;font-variant-caps:normal;font-variant-numeric:normal;font-feature-settings:normal;text-align:start;writing-mode:lr-tb;text-anchor:start;fill:url(#linearGradient2366);fill-opacity:1;stroke-width:3.2855px"
           d="m 252.2036,-494.12059 q -6.353,4.94122 -12.32097,7.44392 -5.90379,2.43853 -13.28354,2.43853 -6.73803,0 -11.87177,-2.63105 -5.06956,-2.69521 -7.82895,-7.2514 -2.75938,-4.55619 -2.75938,-9.88244 0,-7.18724 4.55619,-12.2568 4.55619,-5.06957 12.51348,-6.8022 1.66847,-0.38503 8.27816,-1.73264 6.60968,-1.34761 11.29422,-2.43852 4.74871,-1.1551 10.26747,-2.75939 -0.32086,-6.93054 -2.82355,-10.13913 -2.43853,-3.27276 -10.20331,-3.27276 -6.67385,0 -10.07496,1.86098 -3.33692,1.86098 -5.77545,5.58294 -2.37435,3.72196 -3.4011,4.94122 -0.96258,1.15509 -4.23533,1.15509 -2.9519,0 -5.13374,-1.86098 -2.11767,-1.92515 -2.11767,-4.87705 0,-4.62036 3.27276,-8.98404 3.27276,-4.36367 10.2033,-7.18723 6.93055,-2.82355 17.26219,-2.82355 11.55091,0 18.1606,2.75938 6.60969,2.69521 9.3049,8.59901 2.75938,5.9038 2.75938,15.6579 0,6.16048 -0.0642,10.45999 0,4.2995 -0.0642,9.56158 0,4.94123 1.60429,10.33165 1.66847,5.32625 1.66847,6.86637 0,2.69522 -2.56687,4.94123 -2.5027,2.18184 -5.71128,2.18184 -2.69522,0 -5.32626,-2.5027 -2.63104,-2.56687 -5.58294,-7.37975 z m -1.15509,-25.34783 q -3.8503,1.41178 -11.23005,3.01607 -7.31557,1.54012 -10.13913,2.31019 -2.82355,0.70588 -5.39042,2.88772 -2.56687,2.11767 -2.56687,5.96797 0,3.97865 3.01607,6.8022 3.01607,2.75939 7.89312,2.75939 5.19791,0 9.56159,-2.24601 4.42784,-2.31018 6.48134,-5.9038 2.37435,-3.97865 2.37435,-13.09103 z" />
        <path
           id="path1565"
           style="font-style:normal;font-variant:normal;font-weight:normal;font-stretch:normal;font-size:131.424px;font-family:'Arial Rounded MT Bold';-inkscape-font-specification:'Arial Rounded MT Bold, Normal';font-variant-ligatures:normal;font-variant-caps:normal;font-variant-numeric:normal;font-feature-settings:normal;text-align:start;writing-mode:lr-tb;text-anchor:start;fill:url(#linearGradient2368);fill-opacity:1;stroke-width:3.2855px"
           d="m 300.46071,-571.51168 v 26.75961 q 4.94122,-5.13374 10.07496,-7.82895 5.13374,-2.75939 12.706,-2.75939 8.72735,0 15.27287,4.17116 6.60969,4.10699 10.2033,12.00012 3.65779,7.82895 3.65779,18.60979 0,7.9573 -2.0535,14.63115 -1.98932,6.60969 -5.83962,11.48674 -3.8503,4.87705 -9.36907,7.57226 -5.4546,2.63105 -12.06428,2.63105 -4.04282,0 -7.63644,-0.96258 -3.52944,-0.96258 -6.03214,-2.5027 -2.5027,-1.60429 -4.29951,-3.27276 -1.73263,-1.66846 -4.62036,-5.00539 v 1.73264 q 0,4.94122 -2.37435,7.50809 -2.37436,2.5027 -6.03214,2.5027 -3.72196,0 -5.96797,-2.5027 -2.18184,-2.56687 -2.18184,-7.50809 v -76.49269 q 0,-5.32625 2.11766,-8.02146 2.18184,-2.75939 6.03215,-2.75939 4.04281,0 6.22465,2.63104 2.18184,2.56687 2.18184,7.37975 z m 0.83423,52.04326 q 0,10.45999 4.74871,16.1071 4.81288,5.58294 12.57766,5.58294 6.60968,0 11.35839,-5.71128 4.81288,-5.77545 4.81288,-16.49213 0,-6.93055 -1.98932,-11.93594 -1.98933,-5.00539 -5.64712,-7.70061 -3.65778,-2.75938 -8.53483,-2.75938 -5.0054,0 -8.91987,2.75938 -3.91448,2.69522 -6.16049,7.89312 -2.24601,5.13374 -2.24601,12.2568 z" />
        <path
           id="path1567"
           style="font-style:normal;font-variant:normal;font-weight:normal;font-stretch:normal;font-size:131.424px;font-family:'Arial Rounded MT Bold';-inkscape-font-specification:'Arial Rounded MT Bold, Normal';font-variant-ligatures:normal;font-variant-caps:normal;font-variant-numeric:normal;font-feature-settings:normal;text-align:start;writing-mode:lr-tb;text-anchor:start;fill:url(#linearGradient2370);fill-opacity:1;stroke-width:3.2855px"
           d="m 380.8037,-571.51168 v 26.75961 q 4.94122,-5.13374 10.07496,-7.82895 5.13373,-2.75939 12.706,-2.75939 8.72735,0 15.27287,4.17116 6.60968,4.10699 10.2033,12.00012 3.65779,7.82895 3.65779,18.60979 0,7.9573 -2.0535,14.63115 -1.98932,6.60969 -5.83962,11.48674 -3.85031,4.87705 -9.36908,7.57226 -5.45459,2.63105 -12.06428,2.63105 -4.04282,0 -7.63643,-0.96258 -3.52945,-0.96258 -6.03214,-2.5027 -2.5027,-1.60429 -4.29951,-3.27276 -1.73263,-1.66846 -4.62036,-5.00539 v 1.73264 q 0,4.94122 -2.37436,7.50809 -2.37435,2.5027 -6.03214,2.5027 -3.72196,0 -5.96797,-2.5027 -2.18184,-2.56687 -2.18184,-7.50809 v -76.49269 q 0,-5.32625 2.11767,-8.02146 2.18184,-2.75939 6.03214,-2.75939 4.04282,0 6.22466,2.63104 2.18184,2.56687 2.18184,7.37975 z m 0.83423,52.04326 q 0,10.45999 4.74871,16.1071 4.81288,5.58294 12.57765,5.58294 6.60969,0 11.3584,-5.71128 4.81288,-5.77545 4.81288,-16.49213 0,-6.93055 -1.98933,-11.93594 -1.98932,-5.00539 -5.64711,-7.70061 -3.65779,-2.75938 -8.53484,-2.75938 -5.00539,0 -8.91986,2.75938 -3.91448,2.69522 -6.16049,7.89312 -2.24601,5.13374 -2.24601,12.2568 z" />
      </g>
      <text
         transform="scale(0.96147744,1.040066)"
         id="text243"
         y="-79.23642"
         x="-207.76285"
         style="font-style:normal;font-weight:normal;font-size:44.1208px;line-height:2918.23px;font-family:sans-serif;letter-spacing:0px;word-spacing:0px;fill:#0082c2;fill-opacity:1;stroke:none;stroke-width:1.10302"
         xml:space="preserve"><tspan
           style="font-style:normal;font-variant:normal;font-weight:normal;font-stretch:normal;font-family:'Segoe Print';-inkscape-font-specification:'Segoe Print';stroke-width:1.10302"
           y="-79.23642"
           x="-207.76285"
           id="tspan241">Contabilidade Borges</tspan></text>
    </g>
  </g>
</svg>
